<svg xmlns="http://www.w3.org/2000/svg" version="1.1" xmlns:xlink="http://www.w3.org/1999/xlink" xmlns:svgjs="http://svgjs.dev/svgjs" width="100%" height="100%" viewBox="0 0 1000 600"><rect width="1000" height="600" x="0" y="0" fill="#ffffff"/><g><rect width="333.3333333333333" height="333.3333333333333" rx="13.333333333333334" ry="13.333333333333334" y="175.6267971729031" fill="red" transform="matrix(0.8148388153697933,0,0,0.8148388153697931,0,21.086003890413693)" x="153.40457153320312"/><path d="M377.4336200322464 267.2934679959899L377.4336200322464 417.2934684411987L358.5267925106562 417.2934684411987L358.5267925106562 347.32653573012874L281.615685493817 347.32653573012874L281.615685493817 417.2934684411987L262.7088579722268 417.2934684411987L262.7088579722268 267.2934679959899L281.615685493817 267.2934679959899L281.615685493817 330.75388444577186L358.5267925106562 330.75388444577186L358.5267925106562 267.2934679959899L377.4336200322464 267.2934679959899Z " fill="#ffffff" transform="matrix(0.8148388153697933,0,0,0.8148388153697931,0,21.086003890413693)"/><path d="M587.2249177404052 267.29346792926947L587.2249177404052 310.74584696814196Q587.2249177404052 318.538054417205 586.2508918092724 325.3562359351352L586.2508918092724 325.3562359351352L587.4143116714588 325.3562359351352Q592.4738352581769 317.3475782791537 601.1318435349136 313.2620806235686Q609.8169080875151 309.1765829679834 619.9359552609512 309.1765829679834L619.9359552609512 309.1765829679834Q639.0376860215016 309.1765829679834 648.5885514017768 318.24043538269217Q658.1123605061872 327.30428779740095 658.1123605061872 347.3529882132194L658.1123605061872 347.3529882132194L658.1123605061872 415.3454094614676L641.175131814821 415.3454094614676L641.175131814821 348.51640807540593Q641.175131814821 323.4081840728694 617.7985094676318 323.4081840728694L617.7985094676318 323.4081840728694Q600.2660427072399 323.4081840728694 593.7454802238226 333.22961221179264Q587.2249177404052 343.0780966265807 587.2249177404052 361.39519538705184L587.2249177404052 361.39519538705184L587.2249177404052 415.3454094614676L570.0712388421206 415.3454094614676L570.0712388421206 267.29346792926947L587.2249177404052 267.29346792926947ZM781.2454719669024 362.93740311134553L781.2454719669024 362.93740311134553Q781.2454719669024 388.85731538982617 768.0961218966086 403.06186021884736Q754.9467718263146 417.29346132373337 732.5441754102583 417.29346132373337L732.5441754102583 417.29346132373337Q718.7184184433444 417.29346132373337 707.8959080974234 410.9622927713696Q697.0733977515025 404.63112421900587 690.850454302598 392.45580007984483Q684.6275108536935 380.2804759406838 684.6275108536935 362.93740311134553L684.6275108536935 362.93740311134553Q684.6275108536935 337.0445471087298 697.6686358205282 323.00233993489735Q710.7097607873628 308.9871890369298 733.1123572034192 308.9871890369298L733.1123572034192 308.9871890369298Q747.3439583083052 308.9871890369298 758.166468654226 315.31835758929356Q768.9619227242822 321.64952614165725 775.1036973455923 333.6354563497647Q781.2454719669024 345.59433028200726 781.2454719669024 362.93740311134553ZM702.349371545139 362.93740311134553L702.349371545139 362.93740311134553Q702.349371545139 381.4438958028703 709.6545660286356 392.26640614879125Q716.9597605121322 403.06186021884736 732.9229632723656 403.06186021884736L732.9229632723656 403.06186021884736Q748.6967721015453 403.06186021884736 756.1101916885011 392.26640614879125Q763.5236112754569 381.4438958028703 763.5236112754569 362.93740311134553L763.5236112754569 362.93740311134553Q763.5236112754569 344.4309104198208 756.1101916885011 333.9060191084127Q748.6967721015453 323.4081840728694 732.733569341312 323.4081840728694L732.733569341312 323.4081840728694Q716.7703665810786 323.4081840728694 709.5463409251763 333.9060191084127Q702.349371545139 344.4309104198208 702.349371545139 362.93740311134553ZM922.8580198432776 308.9871890369298L922.8580198432776 308.9871890369298Q940.5798805347231 308.9871890369298 949.3461139149191 318.0510414516386Q958.112347295115 327.08783759048254 958.112347295115 347.3529882132194L958.112347295115 347.3529882132194L958.112347295115 415.3454094614676L941.1751186037488 415.3454094614676L941.1751186037488 348.1376202132987Q941.1751186037488 323.4081840728694 919.935942049879 323.4081840728694L919.935942049879 323.4081840728694Q904.7573712897249 323.4081840728694 898.2097525304428 332.17441745306536Q891.6891900470255 340.9406508332613 891.6891900470255 357.6884855935739L891.6891900470255 357.6884855935739L891.6891900470255 415.3454094614676L874.7519613556592 415.3454094614676L874.7519613556592 348.1376202132987Q874.7519613556592 323.4081840728694 853.3233908707357 323.4081840728694L853.3233908707357 323.4081840728694Q837.549582041556 323.4081840728694 831.4889762478404 333.14844338419823Q825.4554267299894 342.88870269552706 825.4554267299894 361.17874518013343L825.4554267299894 361.17874518013343L825.4554267299894 415.3454094614676L808.3288041075696 415.3454094614676L808.3288041075696 310.93524089919555L822.1545610744836 310.93524089919555L824.6707947299101 325.13978572821674L825.644820661043 325.13978572821674Q830.5149503167074 316.9687904170465 838.7941707313369 312.9644615890557Q847.0733911459664 308.9871890369298 856.434862595188 308.9871890369298L856.434862595188 308.9871890369298Q880.9749048045637 308.9871890369298 888.3883243915195 326.51965579732166L888.3883243915195 326.51965579732166L889.3623503226524 326.51965579732166Q894.611267840424 317.5640284860721 903.6751202551327 313.2620806235686Q912.7389726698416 308.9871890369298 922.8580198432776 308.9871890369298ZM1030.785504267974 308.9871890369298L1030.785504267974 308.9871890369298Q1044.2324733727808 308.9871890369298 1053.8645075806503 314.8313446237271Q1063.5235980643847 320.6755002105244 1068.6642904786972 331.2815603495269Q1073.8320391688744 341.9146767643942 1073.8320391688744 356.1192215934154L1073.8320391688744 356.1192215934154L1073.8320391688744 366.45471897376984L1002.3493583340667 366.45471897376984Q1002.7281461961741 384.1765796652154 1011.4132107487756 393.42982601097776Q1020.0712190255123 402.6830723567401 1035.6556339236383 402.6830723567401L1035.6556339236383 402.6830723567401Q1045.5852871660209 402.6830723567401 1053.2963257874894 400.84324559793356Q1060.9803081330933 398.9763625632622 1069.1513034442637 395.4861029767027L1069.1513034442637 395.4861029767027L1069.1513034442637 410.4752798058032Q1061.169702064147 413.9925956682275 1053.3774946150838 415.6430284959804Q1045.5852871660209 417.29346132373337 1034.871001923559 417.29346132373337L1034.871001923559 417.29346132373337Q1020.0712190255123 417.29346132373337 1008.6805268864305 411.25991180588244Q997.2898347473488 405.2263622880315 990.958666194985 393.2404320799241Q984.6274976426213 381.25450187181673 984.6274976426213 363.9114290424784L984.6274976426213 363.9114290424784Q984.6274976426213 346.7848064200586 990.3634281259593 334.50125717743833Q996.0993586092975 322.2177079348181 1006.5430810931111 315.6159766238064Q1016.9597473010599 308.9871890369298 1030.785504267974 308.9871890369298ZM1030.5961103369204 323.00233993489735L1030.5961103369204 323.00233993489735Q1018.3125610943001 323.00233993489735 1011.1967605418571 330.90277248741967Q1004.1080162652788 338.7761487640771 1002.7281461961741 352.81835593790953L1002.7281461961741 352.81835593790953L1055.9207845463752 352.81835593790953Q1055.7313906153217 339.5607807641564 1049.670784821606 331.2815603495269Q1043.637235303755 323.00233993489735 1030.5961103369204 323.00233993489735Z " fill="red" transform="matrix(0.8148388153697933,0,0,0.8148388153697931,0,21.086003890413693)"/></g></svg>
